# xmcd CD database file
#
# Track frame offsets:
#	150
#	20872
#	41767
#	61355
#	79617
#	93812
#	110647
#	122105
#	138392
#	153495
#	171680
#	185182
#	199602
#	213620
#	228680
#	246707
#
# Disc length: 3485 seconds
#
# Revision: 0
# Processed by: cddbd v1.5.1PL0 Copyright (c) Steve Scherf et al.
# Submitted via: CDex 1.51
#
DISCID=f90d9b10
DTITLE=石原裕次郎 - 全曲集
DYEAR=1999
DGENRE=Blues
TTITLE0=引き潮
TTITLE1=それぞれの旅
TTITLE2=北の旅人
TTITLE3=わが人生に悔いなし
TTITLE4=狂った果実
TTITLE5=夜霧よ今夜も有難う
TTITLE6=俺は待ってるぜ
TTITLE7=ブランデーグラス
TTITLE8=粋な別れ
TTITLE9=恋の町札幌
TTITLE10=嵐を呼ぶ男
TTITLE11=錆びたナイフ
TTITLE12=港町 涙町 別れ町
TTITLE13=俺はお前に弱いんだ
TTITLE14=二人の世界
TTITLE15=赤いハンカチ
EXTD=YEAR: 1999
EXTT0=
EXTT1=
EXTT2=
EXTT3=
EXTT4=
EXTT5=
EXTT6=
EXTT7=
EXTT8=
EXTT9=
EXTT10=
EXTT11=
EXTT12=
EXTT13=
EXTT14=
EXTT15=
PLAYORDER=
